<svg width="1024" height="1024" viewBox="0 0 1024 1024" fill="none" xmlns="http://www.w3.org/2000/svg">
<rect width="1024" height="1024" fill="#9AD8B8"/>
<path d="M91.9198 125.81C112.31 101.407 153.374 103.626 215.442 97.5368C265.805 92.4864 284.685 78.94 317.819 73.512C336.51 70.4912 345.573 73.6064 356.429 76.7688C353.266 68.8864 346.092 63.9776 344.44 63.6944C342.269 61.5232 383.663 58.5496 416.939 110.328L418.119 87.2472C441.153 102.21 448.846 137.893 452.15 157.575C467.962 153.044 484.954 152.242 496.424 152.855L484.01 138.978C511.481 138.978 532.343 142.613 546.173 149.598L535.883 130.246C567.413 133.314 584.074 152.997 605.645 157.575C614.565 159.605 617.586 155.498 617.586 155.498C624.194 128.547 640.478 106.882 656.29 90.1736L654.874 118.73C672.574 97.6784 696.363 78.5152 730.725 81.2528L715.621 88.7104C728.742 88.7104 724.211 92.4864 730.017 90.1736C753.333 88.0024 787.317 116.511 832.488 129.255C871.003 140.914 889.458 136.335 909.282 168.006C919.619 185.423 921.79 203.595 934.77 222.758C950.582 245.273 951.29 263.634 941.992 272.743C931.136 283.269 901.872 280.059 866 250.559C855.002 241.119 847.875 234.039 842.4 230.027C828.57 238.618 824.747 261.132 821.396 284.449L829.325 304.226L846.506 316.639C857.362 318.055 866.708 323.625 874.637 330.799C857.362 330.799 853.067 332.97 847.922 335.142C875.629 340.947 907.158 367.851 915.088 389.138C900.503 381.209 891.205 377.622 881.151 378.33C901.211 399.381 902.627 421.895 903.335 453.566C889.741 430.486 880.443 418.261 860.855 408.915C866 436.763 862.413 454.935 859.533 463.809C865.009 484.152 862.177 501.616 855.946 512.614L854.53 514.077L856.654 520.543L850.282 522.006L851.226 536.119C889.033 547.542 920.563 569.773 931.891 607.863C918.061 597.621 906.403 583.791 886.154 583.791L899.984 605.55L898.568 608.43C928.681 634.201 941.331 666.58 942.747 712.27L923.395 682.298C940.623 725.108 924.858 772.214 897.105 795.814L895.453 758.431C884.502 782.834 870.673 798.032 847.403 795.814C836.453 829.373 809.69 864.348 778.916 869.398L786.09 842.447C765.794 866.85 738.796 876.667 710.57 873.741L715.621 864.112L703.915 870.154C685.696 898.474 697.449 944.871 701.272 960.4H697.685C670.686 930.9 667.099 903.949 685.224 864.631C657.517 868.926 633.729 863.404 618.389 855.238L639.251 843.438C615.226 846.129 598.045 838.199 583.461 828.854C607.485 835.556 635.9 834.376 674.226 828.334L662.521 847.214C699.62 844.571 719.916 836.217 745.498 824.228L735.256 851.132C765.794 842.966 776.273 829.562 794.917 809.926L799.684 828.334C813.513 813.372 827.626 792.368 827.626 776.934C827.626 768.296 823.567 762.915 819.508 764.378C800.156 784.722 756.165 786.893 715.621 779.199C707.266 784.958 696.363 795.011 682.817 784.014L679.229 776.792C652.939 802.563 624.949 816.487 597.951 812.617L615.179 795.247C583.697 804.829 562.834 819.791 551.176 856.23C536.591 831.827 541.594 813.844 545.465 799.165L517.947 822.246L518.655 782.786C505.533 792.368 504.117 807.991 506.949 828.806C487.597 804.687 484.718 784.722 481.886 758.006L463.95 791.188C447.43 737.191 469.709 677.672 545.465 661.199L547.589 661.671L545.465 660.727C508.649 676.964 473.532 700.847 465.602 748.944C479.243 727.751 496.896 719.633 521.817 715.574C500.483 737.427 493.545 758.95 496.66 786.421C506.241 766.786 520.354 754.608 543.293 755.08L530.88 794.775L557.17 775.895C568.121 773.252 577.702 774.479 587.001 776.839C572.652 786.657 560.946 798.882 557.123 817.526C576.711 796.474 607.485 791.188 652.939 761.688L634.248 796.238C668.515 779.53 685.46 755.835 710.57 727.751L701.98 771.317C720.624 762.679 730.205 752.39 741.675 741.392L740.259 761.688L760.555 746.726L759.139 756.071C777.264 748.425 789.205 742.855 789.205 720.105V716.518C763.623 708.871 741.203 693.909 737.38 676.964C762.49 680.362 775.801 673.377 779.152 657.376C768.437 666.25 761.499 670.734 745.026 669.318C719.444 667.146 710.57 639.959 711.278 630.85C711.797 597.621 747.858 584.263 800.628 584.263C831.921 584.263 855.002 590.966 864.065 620.938C871.003 640.62 864.537 668.326 833.29 666.438C827.862 664.975 828.57 669.318 829.986 672.197C834.045 677.955 841.928 676.964 854.294 673.377C852.642 697.024 823.803 709.815 805.631 718.217V728.223C805.631 740.165 810.634 751.965 819.508 753.428C836.925 748.897 848.866 761.735 847.875 779.199C866.236 778.491 878.413 757.959 884.03 714.346C896.68 723.928 901.683 736.766 904.515 750.549C915.465 718.925 906.639 682.486 895.689 655.535L919.666 670.734C909.424 646.331 899.512 636.042 883.275 620.607L889.741 614.377L856.654 577.702L887.381 575.531C870.673 563.07 856.418 559.483 834.045 555.141L832.629 545.559C801.1 530.125 781.795 506.147 771.741 476.222L767.21 487.22L760.555 465.697L757.912 467.868C748.566 453.991 746.914 432.657 749.746 401.977C756.921 409.151 758.384 418.025 761.027 430.014C766.03 393.103 782.267 375.686 808.51 368.276L805.867 376.63C794.445 378.802 791.565 383.38 789.441 386.967C813.466 377.386 835.461 385.504 859.533 399.334L865.481 392.82L878.555 408.915C871.664 393.764 860.713 382.861 847.403 371.391L865.481 364.217C848.819 354.635 830.694 349.821 809.69 348.122L818.045 335.142L804.451 332.97C790.621 335.614 781.795 341.655 771.741 350.529L773.913 332.97C761.499 340.9 753.333 352.464 748.33 369.975C739.74 356.806 747.386 314.468 784.438 303.47L779.624 326.551L808.746 314.94C792.037 283.269 772.685 255.374 743.563 241.544C743.091 229.555 748.33 222.806 752.861 217.755C738.796 213.46 730.205 217.755 723.267 218.463C721.851 208.882 729.733 199.3 742.147 191.606C723.267 192.834 715.385 199.3 700.564 199.3C696.977 199.3 699.62 180.184 704.859 167.487C714.157 146.436 735.256 139.214 762.49 147.663C812.805 163.428 855.238 228.375 898.332 252.022C910.509 258.725 923.395 257.781 926.038 255.61C926.746 247.916 919.1 236.446 908.574 218.463C894.509 194.722 896.208 169.186 866.708 161.021C815.165 149.551 804.923 142.141 767.21 121.798C730.205 101.454 704.859 106.505 682.581 129.019L686.404 111.272C670.167 118.966 659.405 132.606 650.107 148.371L645.34 134.542L638.165 167.015L675.17 195.43L669.931 194.486C652.939 187.547 635.947 182.308 616.831 180.184L618.247 199.3C601.066 180.892 587.001 167.015 569.537 162.956L582.186 196.185C560.946 178.013 540.178 168.478 521.817 165.127L538.762 187.358C511.764 174.898 486.181 170.838 456.068 176.833C457.72 184.951 459.891 195.241 456.068 196.421C441.011 198.12 434.545 182.072 431.429 157.67L420.715 135.014L415.948 146.719C394.944 107.449 379.179 90.1736 333.725 92.8168C310.692 95.46 290.868 111.508 243.762 116.558C199.489 121.373 140.536 120.429 112.546 133.126C96.3094 139.828 97.7254 159.369 119.437 212.988L120.381 167.487L131.332 217.991C134.683 249.143 130.388 273.262 137.279 291.198C144.17 308.71 176.408 294.55 204.822 263.35C230.641 236.918 252.117 205.766 275.386 167.959C297.334 135.014 322.869 116.086 349.396 118.966C380.925 122.317 388.289 173.482 386.165 202.887C375.403 187.122 370.164 177.541 360.582 172.254C371.58 201.943 371.344 228.375 357.514 245.32C345.809 240.27 336.746 230.027 328.392 219.03L339.861 272.554C325.985 267.268 318.574 257.545 310.22 246.264L318.574 283.599C304.461 279.304 295.163 271.374 286.573 262.029C287.753 290.821 275.386 323.389 253.816 322.917C234.936 322.445 227.525 298.892 220.115 283.127L200.291 297.429C202.887 326.929 213.177 333.914 227.761 352.086C252.211 379.982 253.627 406.697 249.332 429.542L225.354 382.861C213.649 417.128 195.524 441.766 179.24 462.11L203.642 453.047L191.465 483.255C166.354 509.97 147.474 531.258 137.232 554.433L171.405 538.998L177.116 545.984C151.297 594.081 124.299 648.266 114.717 693.909L111.602 692.021C107.307 655.818 124.016 611.073 140.347 576.758L111.602 603.662C108.723 553.206 136.949 515.021 163.475 483.35C147.946 486.748 137.232 486.276 125.904 483.35C168.525 442.002 196.468 398.154 202.887 357.75C189.765 343.638 183.346 326.41 181.411 309.182C153.421 324.38 134.541 321.454 121.42 307.294C109.714 294.597 114.245 272.082 102.068 240.27C83.8958 198.12 70.0662 152.43 91.9198 125.81ZM805.584 265.616C809.879 243.149 814.882 228.847 827.815 218.463C808.935 205.766 791.99 213.932 776.697 227.573C785.571 236.918 797.701 248.907 805.584 265.616ZM839.473 483.869C830.175 493.922 820.169 500.436 806.528 501.144C812.994 510.678 822.293 518.844 834.47 525.83L837.113 507.374L844.288 506.147L839.473 483.869ZM837.821 437.943C839.237 421.659 832.818 409.151 823.992 402.449C832.346 426.426 827.815 455.218 810.823 479.338C827.06 472.871 836.122 455.926 837.821 437.943ZM793.17 434.592C802.988 434.592 805.82 426.19 805.82 422.603C805.82 415.901 801.053 410.85 794.397 410.85C786.751 410.85 782.456 415.901 782.456 422.367C782.456 428.598 786.987 434.592 793.17 434.592ZM804.64 620.938C824.936 619.238 838.765 615.887 838.765 610.082C838.765 604.559 821.821 600.972 800.345 601.208C778.869 601.444 762.16 605.55 762.16 611.073C762.16 616.359 780.049 622.873 804.64 620.938Z" fill="black"/>
<path d="M433.648 497.557C458.05 512.519 478.158 517.9 506.336 510.678C469.52 505.675 440.398 478.724 433.459 444.409L421.565 457.342C413.918 461.637 406.744 463.101 400.278 460.457C437.566 423.547 458.806 370.683 510.395 372.854L470.511 376.677C501.333 360.629 546.031 363.037 573.502 411.558C588.558 438.037 593.798 460.221 598.093 483.633C569.678 492.742 554.622 513.793 533.098 524.319C506.336 536.78 461.166 532.485 433.648 497.557ZM492.931 408.679C480.282 410.85 477.402 420.904 478.63 427.134C480.518 436.244 487.456 440.067 494.394 439.359C506.1 437.943 511.103 430.013 510.867 422.367C510.631 414.909 503.929 406.98 492.931 408.679ZM567.271 463.809C564.392 449.224 562.693 436.999 557.454 427.134C559.389 451.159 551.978 470.983 535.742 489.391C550.562 483.397 559.389 473.343 567.271 463.809Z" fill="black"/>
<path d="M418.544 346.706C406.13 350.293 398.248 354.399 389.894 356.806C428.314 317.347 487.314 308.238 529.889 326.929L489.958 288.838C525.83 281.145 556.132 299.836 581.242 323.389C578.127 304.698 572.888 296.06 563.542 283.599C598.187 291.246 620.135 347.225 612.253 389.138L609.138 386.495C607.25 356.806 601.255 335.566 588.653 323.625L589.361 353.455C571.189 323.625 549.241 308.238 526.066 303.942C543.01 319.33 556.368 336.322 558.775 358.034C518.183 328.156 468.718 323.389 428.031 346.47L469.426 354.871C428.314 366.86 391.782 388.383 373.374 421.423C384.607 412.55 397.493 407.499 409.434 405.8C391.074 422.367 386.542 450.215 372.949 463.101C365.066 470.511 346.942 467.868 331.413 478.393C317.583 487.267 304.934 499.964 300.166 516.484L298.703 513.369C305.17 483.397 328.675 464.753 357.703 462.346C375.592 460.458 377.008 427.606 396.313 408.679C370.306 417.317 366.482 427.606 363.65 431.713C366.01 395.038 406.602 364.217 443.607 352.275L418.544 346.706Z" fill="black"/>
<path d="M250.512 465.461L252.447 466.405C263.398 516.201 274.395 548.863 299.742 595.308L297.382 596.016C280.39 591.485 266.56 582.375 257.687 572.086C271.516 602.294 294.267 625.516 334.623 651.759C332.735 664.22 304.745 659.689 294.031 655.583C313.855 672.386 337.974 685.319 371.863 694.192C361.574 700.659 354.399 704.246 345.573 706.417C365.161 724.636 391.876 731.339 426.71 734.218L426.238 737.805C386.401 741.911 346.092 733.982 321.454 705.945L327.212 697.543L342.033 695.136C298.279 681.967 266.513 653.931 257.687 623.487C269.392 634.956 280.39 640.007 291.623 641.47C257.215 612.253 236.211 576.759 239.043 533.712L268.448 567.319C249.804 538.999 244.329 503.079 250.512 465.461Z" fill="black"/>
<path d="M454.416 597.904C426.427 612.017 412.361 630.661 408.066 667.335C397.351 632.36 423.831 601.727 454.416 597.904Z" fill="black"/>
<path d="M446.392 638.024C431.099 654.308 419.441 672.527 417.269 704.434C409.859 673.282 422.745 649.399 446.392 638.024Z" fill="black"/>
<path d="M449.224 694.664C435.394 715.715 428.456 734.359 434.922 760.838C421.092 733.887 425.624 708.871 449.224 694.664Z" fill="black"/>
<path d="M645.151 357.75C659.028 385.409 649.919 407.499 645.151 423.311L645.907 451.631C630.567 433.884 633.446 413.729 639.157 399.097C644.915 385.268 645.907 372.335 645.151 357.75Z" fill="black"/>
<path d="M711.136 376.63C714.724 407.735 718.783 431.713 727.656 456.87C709.484 446.345 702.546 413.965 711.136 376.63Z" fill="black"/>
<path d="M671.914 371.391C676.917 389.327 679.088 405.564 683.619 418.025L698.912 371.391C704.434 403.157 705.898 432.185 698.723 453.991C677.908 436.999 670.97 406.508 671.914 371.391Z" fill="black"/>
<path d="M612.866 424.775C618.578 454.463 623.345 469.284 646.095 492.743C633.918 490.335 624.572 485.804 616.69 479.102L626.507 492.743C601.161 497.038 581.337 510.679 570.386 540.415L603.521 527.01C572.038 545.654 568.215 589.55 524.036 612.017C518.042 615.132 512.33 616.359 504.92 615.132C539.329 595.497 556.746 565.289 572.746 541.359L564.864 544.238C571.33 513.086 585.915 493.451 610.506 485.804C605.503 479.574 602.152 472.399 600.689 463.526L614.802 467.868C611.45 457.579 610.506 444.41 612.866 424.775Z" fill="black"/>
<path d="M700.186 576.192C671.017 569.725 641.564 571.425 612.394 592.759C618.105 572.652 667.146 547.778 700.186 576.192Z" fill="black"/>
<path d="M660.964 591.768C636.75 594.175 619.569 609.704 604.276 632.219C609.988 606.872 630.048 583.414 660.964 591.768Z" fill="black"/>
</svg>
