<svg width="1024" height="1024" viewBox="0 0 1024 1024" fill="none" xmlns="http://www.w3.org/2000/svg">
<rect width="1024" height="1024" fill="#43A472"/>
<path d="M155.258 716C164.458 682 174.058 646.8 184.058 610.4C194.058 573.6 204.258 536.8 214.658 500C225.058 463.2 235.258 427.8 245.258 393.8C255.658 359.8 265.658 328.6 275.258 300.2H346.658C347.858 309.8 349.058 322.2 350.258 337.4C351.858 352.6 353.258 369.2 354.458 387.2C356.058 405.2 357.458 423.4 358.658 441.8C359.858 460.2 360.858 477.6 361.658 494L462.458 300.2H538.058C532.458 345 525.458 390.2 517.058 435.8C509.058 481.4 500.258 527.6 490.658 574.4C481.058 620.8 470.858 668 460.058 716H384.458C391.258 688.8 398.058 661.6 404.858 634.4C412.058 607.2 419.058 580 425.858 552.8C433.058 525.6 440.058 498.4 446.858 471.2C454.058 444 461.058 416.8 467.858 389.6L374.858 569H316.658C315.858 549 314.858 529 313.658 509C312.458 488.6 311.058 468.6 309.458 449C308.258 429.4 307.058 410.6 305.858 392.6C297.458 428.2 289.058 464.2 280.658 500.6C272.658 536.6 264.458 572.6 256.058 608.6C247.658 644.2 239.258 680 230.858 716H155.258ZM608 721.4C593.2 721.4 576.6 720.6 558.2 719C540.2 717.4 523.4 714.8 507.8 711.2L605.6 305.6C625.6 301.2 642.4 298.4 656 297.2C669.6 296 683.6 295.4 698 295.4C742.4 295.4 777.4 308.2 803 333.8C829 359 842 394.8 842 441.2C842 477.2 837.6 512 828.8 545.6C820.4 578.8 806.8 608.8 788 635.6C769.6 662 745.4 683 715.4 698.6C685.8 713.8 650 721.4 608 721.4ZM620.6 649.4C646.2 649.4 667.8 643 685.4 630.2C703 617 717.2 600 728 579.2C738.8 558.4 746.6 536 751.4 512C756.6 488 759.2 465.2 759.2 443.6C759.2 429.2 757.4 416.2 753.8 404.6C750.6 393 744.6 384 735.8 377.6C727 370.8 714.2 367.4 697.4 367.4C689.4 367.4 681.2 368 672.8 369.2L605.6 648.8C607.6 649.2 610 649.4 612.8 649.4C615.6 649.4 618.2 649.4 620.6 649.4Z" fill="white"/>
</svg>
