<svg width="1024" height="1024" viewBox="0 0 1024 1024" fill="none" xmlns="http://www.w3.org/2000/svg">
<rect width="1024" height="1024" fill="#43A472"/>
<path d="M513 722L513 657" stroke="white" stroke-width="60" stroke-linecap="round" stroke-linejoin="round"/>
<path d="M708.593 320.152C716.647 306.204 721.384 290.59 722.438 274.518C723.492 258.446 720.834 242.347 714.671 227.467C708.508 212.586 699.004 199.323 686.895 188.703C674.785 178.083 660.395 170.391 644.838 166.223C629.28 162.054 612.972 161.52 597.175 164.662C581.378 167.805 566.516 174.539 553.738 184.344C540.96 194.149 530.609 206.763 523.486 221.208C516.363 235.654 512.658 251.545 512.659 267.651C512.66 251.545 508.955 235.654 501.832 221.208C494.709 206.763 484.358 194.149 471.58 184.344C458.802 174.539 443.94 167.805 428.143 164.662C412.346 161.52 396.038 162.054 380.481 166.223C364.923 170.391 350.533 178.083 338.424 188.703C326.314 199.323 316.81 212.586 310.647 227.467C304.484 242.347 301.827 258.446 302.881 274.518C303.935 290.59 308.672 306.204 316.726 320.152" stroke="white" stroke-width="60" stroke-linecap="round" stroke-linejoin="round"/>
<path d="M722.558 272.026C743.131 277.316 762.231 287.218 778.411 300.983C794.591 314.747 807.426 332.013 815.945 351.472C824.464 370.932 828.443 392.075 827.581 413.3C826.719 434.525 821.039 455.275 810.97 473.98" stroke="white" stroke-width="60" stroke-linecap="round" stroke-linejoin="round"/>
<path d="M722.663 722.659C753.481 722.658 783.438 712.488 807.887 693.726C832.336 674.965 849.912 648.661 857.889 618.892C865.865 589.124 863.796 557.556 852.004 529.084C840.211 500.611 819.353 476.825 792.664 461.415" stroke="white" stroke-width="60" stroke-linecap="round" stroke-linejoin="round"/>
<path d="M791.509 704.564C793.962 723.542 792.498 742.822 787.208 761.213C781.918 779.604 772.913 796.715 760.751 811.489C748.589 826.264 733.527 838.388 716.495 847.113C699.463 855.838 680.824 860.979 661.728 862.218C642.631 863.457 623.484 860.769 605.467 854.318C587.451 847.867 570.948 837.791 556.978 824.712C543.009 811.634 531.868 795.83 524.246 778.277C516.623 760.725 512.68 741.796 512.659 722.659C512.639 741.796 508.695 760.725 501.073 778.277C493.45 795.83 482.31 811.634 468.34 824.712C454.37 837.791 437.868 847.867 419.851 854.318C401.835 860.769 382.687 863.457 363.591 862.218C344.494 860.979 325.855 855.838 308.823 847.113C291.792 838.388 276.73 826.264 264.567 811.489C252.405 796.715 243.401 779.604 238.11 761.213C232.82 742.822 231.356 723.542 233.809 704.564" stroke="white" stroke-width="60" stroke-linecap="round" stroke-linejoin="round"/>
<path d="M302.656 722.659C271.837 722.658 241.881 712.488 217.431 693.726C192.982 674.965 175.406 648.661 167.43 618.892C159.453 589.124 161.522 557.556 173.315 529.084C185.108 500.611 205.966 476.825 232.654 461.415" stroke="white" stroke-width="60" stroke-linecap="round" stroke-linejoin="round"/>
<path d="M302.761 272.026C282.187 277.316 263.087 287.218 246.908 300.983C230.728 314.747 217.892 332.013 209.373 351.472C200.854 370.932 196.875 392.075 197.737 413.3C198.599 434.525 204.28 455.275 214.349 473.98" stroke="white" stroke-width="60" stroke-linecap="round" stroke-linejoin="round"/>
<path d="M334.629 592C339.229 575 344.029 557.4 349.029 539.2C354.029 520.8 359.129 502.4 364.329 484C369.529 465.6 374.629 447.9 379.629 430.9C384.829 413.9 389.829 398.3 394.629 384.1H430.329C430.929 388.9 431.529 395.1 432.129 402.7C432.929 410.3 433.629 418.6 434.229 427.6C435.029 436.6 435.729 445.7 436.329 454.9C436.929 464.1 437.429 472.8 437.829 481L488.229 384.1H526.029C523.229 406.5 519.729 429.1 515.529 451.9C511.529 474.7 507.129 497.8 502.329 521.2C497.529 544.4 492.429 568 487.029 592H449.229C452.629 578.4 456.029 564.8 459.429 551.2C463.029 537.6 466.529 524 469.929 510.4C473.529 496.8 477.029 483.2 480.429 469.6C484.029 456 487.529 442.4 490.929 428.8L444.429 518.5H415.329C414.929 508.5 414.429 498.5 413.829 488.5C413.229 478.3 412.529 468.3 411.729 458.5C411.129 448.7 410.529 439.3 409.929 430.3C405.729 448.1 401.529 466.1 397.329 484.3C393.329 502.3 389.229 520.3 385.029 538.3C380.829 556.1 376.629 574 372.429 592H334.629ZM561 594.7C553.6 594.7 545.3 594.3 536.1 593.5C527.1 592.7 518.7 591.4 510.9 589.6L559.8 386.8C569.8 384.6 578.2 383.2 585 382.6C591.8 382 598.8 381.7 606 381.7C628.2 381.7 645.7 388.1 658.5 400.9C671.5 413.5 678 431.4 678 454.6C678 472.6 675.8 490 671.4 506.8C667.2 523.4 660.4 538.4 651 551.8C641.8 565 629.7 575.5 614.7 583.3C599.9 590.9 582 594.7 561 594.7ZM567.3 558.7C580.1 558.7 590.9 555.5 599.7 549.1C608.5 542.5 615.6 534 621 523.6C626.4 513.2 630.3 502 632.7 490C635.3 478 636.6 466.6 636.6 455.8C636.6 448.6 635.7 442.1 633.9 436.3C632.3 430.5 629.3 426 624.9 422.8C620.5 419.4 614.1 417.7 605.7 417.7C601.7 417.7 597.6 418 593.4 418.6L559.8 558.4C560.8 558.6 562 558.7 563.4 558.7C564.8 558.7 566.1 558.7 567.3 558.7Z" fill="white"/>
</svg>
